<svg width="53.304688" height="32.599976" viewBox="0 0 53.3047 32.6" fill="none" xmlns="http://www.w3.org/2000/svg" xmlns:xlink="http://www.w3.org/1999/xlink">
	<desc>
			Created with Pixso.
	</desc>
	<defs/>
	<path d="M17.94 31.6L29.64 1L35.04 1L23.34 31.6L17.94 31.6ZM9.55 15.55Q9.55 15 9.28 14.68Q8.88 14.2 7.89 14.2Q7.14 14.2 6.34 14.59C5.8 14.83 5.33 15.13 4.92 15.49Q4.33 16 3.82 16.54Q3.34 17.04 3.07 17.44L2.8 17.79L2.05 17.79L2.05 12.4C2.13 12.3 2.24 12.17 2.38 12.01C2.52 11.83 2.82 11.53 3.28 11.11Q3.97 10.45 4.71 9.96Q5.5 9.46 6.67 9.07Q7.62 8.73 8.58 8.66L8.58 8.66L8.58 8.66Q8.84 8.65 9.1 8.65Q11.88 8.65 13.64 9.99L13.64 9.99Q13.82 10.12 13.99 10.27Q15.03 11.16 15.49 12.3Q15.85 13.17 15.85 14.2C15.85 14.78 15.75 15.37 15.55 15.97C15.37 16.54 15.15 17.04 14.89 17.46C14.63 17.89 14.37 18.27 14.11 18.61C13.85 18.93 13.63 19.18 13.45 19.36L13.15 19.6L16.45 19.6L16.45 25L1 25L1 24.55L8.05 18.25C8.17 18.17 8.31 18.04 8.47 17.89Q8.71 17.62 9.13 16.93Q9.55 16.2 9.55 15.55ZM40.69 31.15C41.57 31.35 42.49 31.45 43.45 31.45Q47.56 31.45 49.86 29.4Q49.91 29.36 49.96 29.32Q50.69 28.66 51.19 27.86Q52.3 26.1 52.3 23.65C52.3 21.57 51.54 19.85 50.02 18.49C48.5 17.12 46.46 16.45 43.9 16.45C43.3 16.45 42.75 16.5 42.25 16.6L42.61 14.65L51.1 14.65L51.1 9.09L38.35 9.09L36.7 20.2L40 22.15L40.33 21.88Q40.69 21.64 41.41 21.37Q42.13 21.1 42.85 21.1C43.81 21.1 44.55 21.31 45.07 21.73C45.59 22.15 45.85 22.74 45.85 23.5C45.85 24.26 45.59 24.85 45.07 25.27C44.55 25.69 43.81 25.9 42.85 25.9C41.91 25.9 40.97 25.74 40.03 25.42C39.09 25.12 38.46 24.88 38.14 24.7C37.84 24.52 37.61 24.37 37.45 24.25L35.65 28.6L35.95 28.9C36.17 29.1 36.5 29.34 36.94 29.62C37.38 29.9 37.89 30.17 38.47 30.43C39.07 30.71 39.81 30.95 40.69 31.15Z" fill="#F8A4A4" fill-opacity="1.000000" fill-rule="evenodd"/>
	<path d="M36.49 0L28.95 0L16.49 32.59L24.03 32.59L36.49 0ZM18.32 30.6L29.64 1L35.04 1L34.66 2L23.34 31.6L17.94 31.6L18.32 30.6ZM6.77 15.49Q7.37 15.2 7.89 15.2Q8.4 15.2 8.51 15.41Q8.55 15.47 8.55 15.55Q8.55 15.93 8.27 16.41Q7.92 16.99 7.73 17.2Q7.58 17.35 7.49 17.41L7.43 17.45L0 24.1L0 26L17.45 26L17.45 18.6L15.34 18.6Q15.54 18.31 15.74 17.99Q16.19 17.25 16.49 16.28Q16.85 15.23 16.85 14.2Q16.85 12.92 16.39 11.84Q15.85 10.54 14.65 9.52Q14.37 9.27 14.06 9.05Q12.08 7.65 9.1 7.65Q8.63 7.65 8.17 7.7Q7.25 7.8 6.35 8.12Q5.06 8.55 4.18 9.12Q3.35 9.65 2.59 10.37Q1.87 11.03 1.61 11.37Q1.39 11.61 1.26 11.77L1.04 12.04L1.04 18.79L3.3 18.79L3.88 18.02L3.89 18Q4.11 17.68 4.54 17.22Q5.01 16.72 5.57 16.25L5.58 16.24L5.59 16.23Q6.08 15.79 6.74 15.5L6.76 15.49L6.77 15.49ZM2.38 12.01C2.24 12.17 2.13 12.3 2.05 12.4L2.05 17.79L2.8 17.79L3.05 17.46L3.07 17.44Q3.34 17.04 3.82 16.54Q4.33 16 4.92 15.49C5.33 15.13 5.8 14.83 6.34 14.59Q7.14 14.2 7.89 14.2Q8.88 14.2 9.28 14.68Q9.55 15 9.55 15.55Q9.55 16.2 9.13 16.93Q8.71 17.62 8.47 17.89C8.31 18.04 8.17 18.17 8.05 18.25L1.61 24L1 24.55L1 25L16.45 25L16.45 19.6L13.15 19.6L13.45 19.36C13.63 19.18 13.85 18.93 14.11 18.61C14.11 18.6 14.11 18.6 14.11 18.6C14.37 18.26 14.63 17.88 14.89 17.46C15.15 17.04 15.37 16.54 15.55 15.97C15.75 15.37 15.85 14.78 15.85 14.2Q15.85 13.17 15.49 12.3L15.49 12.3Q15.03 11.16 13.99 10.27Q13.82 10.12 13.64 9.99L13.64 9.99Q11.88 8.65 9.1 8.65Q8.84 8.65 8.58 8.66L8.58 8.66L8.58 8.66L8.58 8.66Q7.62 8.73 6.67 9.07Q5.5 9.46 4.71 9.96Q3.97 10.45 3.28 11.11C2.82 11.53 2.52 11.83 2.38 12.01ZM38.05 31.33Q39.04 31.8 40.47 32.12Q41.9 32.45 43.45 32.45Q47.8 32.45 50.35 30.3Q50.49 30.18 50.63 30.06Q51.52 29.26 52.11 28.28Q53.3 26.32 53.3 23.65Q53.3 21.77 52.58 20.23Q51.93 18.85 50.69 17.74Q50.36 17.45 50.01 17.2Q48.41 16.04 46.25 15.65L52.1 15.65L52.1 8.09L37.49 8.09L35.61 20.71L40.09 23.36L40.92 22.68Q41.19 22.52 41.76 22.3Q42.31 22.1 42.85 22.1Q43.94 22.1 44.44 22.5Q44.53 22.57 44.59 22.65Q44.85 22.97 44.85 23.5Q44.85 24.02 44.59 24.34Q44.53 24.42 44.44 24.49Q43.94 24.9 42.85 24.9Q41.61 24.9 40.33 24.46Q39.04 24.05 38.64 23.83Q38.25 23.59 38.05 23.45L37.02 22.67L34.47 28.83L35.26 29.62L35.28 29.64Q35.67 29.99 36.4 30.46Q37.12 30.92 38.05 31.33ZM37.06 25.19L37.45 24.25C37.61 24.37 37.84 24.52 38.14 24.7C38.19 24.72 38.25 24.75 38.31 24.78C38.66 24.95 39.23 25.16 40.03 25.42C40.97 25.74 41.91 25.9 42.85 25.9C43.81 25.9 44.55 25.69 45.07 25.27C45.59 24.85 45.85 24.26 45.85 23.5C45.85 22.74 45.59 22.15 45.07 21.73C44.55 21.31 43.81 21.1 42.85 21.1Q42.13 21.1 41.41 21.37Q40.69 21.64 40.33 21.88L40 22.15L36.7 20.2L38.35 9.09L51.1 9.09L51.1 14.65L42.61 14.65L42.44 15.55L42.25 16.6C42.58 16.53 42.92 16.49 43.29 16.46C43.49 16.45 43.69 16.45 43.9 16.45C46.46 16.45 48.5 17.12 50.02 18.49Q51.09 19.45 51.66 20.64Q52.3 21.99 52.3 23.65Q52.3 26.1 51.19 27.86Q50.69 28.66 49.96 29.32Q49.91 29.36 49.86 29.4Q47.56 31.45 43.45 31.45C42.49 31.45 41.57 31.35 40.69 31.15C39.81 30.95 39.07 30.71 38.47 30.43C37.89 30.17 37.38 29.9 36.94 29.62C36.5 29.34 36.17 29.1 35.95 28.9L35.65 28.6L37.06 25.19Z" fill="#454444" fill-opacity="1.000000" fill-rule="evenodd"/>
</svg>
