<svg width="53.934082" height="32.599976" viewBox="0 0 53.9341 32.6" fill="none" xmlns="http://www.w3.org/2000/svg" xmlns:xlink="http://www.w3.org/1999/xlink">
	<desc>
			Created with Pixso.
	</desc>
	<defs/>
	<path d="M18.57 31.6L30.27 1L35.67 1L23.97 31.6L18.57 31.6ZM5.82 21.7L4.02 19.45L7.32 14.65L2.67 14.65L2.67 9.09L16.92 9.09L16.92 9.54L11.22 16.9L11.22 17.04C11.32 17.04 11.44 17.06 11.58 17.08C11.74 17.1 12.05 17.17 12.51 17.29Q13.2 17.46 13.83 17.74Q14.46 17.98 15.21 18.52C15.71 18.87 16.14 19.29 16.5 19.75C16.88 20.2 17.19 20.81 17.43 21.55C17.69 22.27 17.82 23.07 17.82 23.95Q17.82 25.98 16.96 27.55Q16.4 28.56 15.48 29.38L15.48 29.38Q13.14 31.45 8.97 31.45C8.01 31.45 7.09 31.35 6.21 31.15C5.33 30.95 4.59 30.71 3.99 30.43C3.41 30.17 2.9 29.9 2.46 29.62C2.02 29.34 1.69 29.1 1.47 28.9L1.17 28.6L2.97 24.25C3.13 24.37 3.35 24.52 3.63 24.7Q4.08 24.97 5.49 25.42Q6.37 25.71 7.27 25.83Q7.82 25.9 8.37 25.9Q9.81 25.9 10.59 25.27Q10.85 25.06 11.02 24.79Q11.37 24.26 11.37 23.5Q11.37 22.73 11.02 22.2Q10.85 21.93 10.59 21.73Q9.81 21.1 8.37 21.1Q7.65 21.1 6.99 21.25Q6.36 21.4 6.09 21.55L5.82 21.7ZM41.32 31.15C42.2 31.35 43.12 31.45 44.08 31.45Q48.19 31.45 50.49 29.4Q50.54 29.36 50.59 29.32Q51.32 28.66 51.82 27.86Q52.93 26.1 52.93 23.65C52.93 21.57 52.17 19.85 50.65 18.49Q50.44 18.3 50.22 18.13Q48.02 16.45 44.53 16.45Q43.63 16.45 42.88 16.6L43.24 14.65L51.73 14.65L51.73 9.09L38.98 9.09L37.33 20.2L40.63 22.15L40.96 21.88Q41.32 21.64 42.04 21.37Q42.76 21.1 43.48 21.1C44.44 21.1 45.18 21.31 45.7 21.73C46.22 22.15 46.48 22.74 46.48 23.5C46.48 24.26 46.22 24.85 45.7 25.27C45.18 25.69 44.44 25.9 43.48 25.9C42.54 25.9 41.6 25.74 40.66 25.42C39.72 25.12 39.09 24.88 38.77 24.7C38.47 24.52 38.24 24.37 38.08 24.25L36.28 28.6L36.58 28.9C36.8 29.1 37.13 29.34 37.57 29.62C38.01 29.9 38.52 30.17 39.1 30.43C39.7 30.71 40.44 30.95 41.32 31.15Z" fill="#F8A4A4" fill-opacity="1.000000" fill-rule="evenodd"/>
	<path d="M37.12 0L29.58 0L17.12 32.59L24.66 32.59L37.12 0ZM18.95 30.6L30.27 1L35.67 1L35.29 2L23.97 31.6L18.57 31.6L18.95 30.6ZM5.42 15.65L3.2 18.88L2.78 19.49L5.57 22.98L6.58 22.42Q6.73 22.34 7.22 22.22Q7.77 22.1 8.37 22.1Q9.46 22.1 9.97 22.5Q10.05 22.57 10.12 22.65Q10.37 22.97 10.37 23.5Q10.37 24.02 10.12 24.34Q10.05 24.42 9.97 24.49Q9.46 24.9 8.37 24.9Q8.08 24.9 7.78 24.87Q6.78 24.8 5.8 24.46Q4.52 24.05 4.16 23.84Q3.78 23.6 3.57 23.45L2.54 22.67L0 28.83L0.78 29.62L0.8 29.64Q1.2 29.99 1.93 30.46Q2.65 30.92 3.57 31.33Q4.57 31.8 5.99 32.12Q7.42 32.45 8.97 32.45Q13.36 32.45 15.95 30.29Q16.05 30.21 16.15 30.12Q17.23 29.16 17.88 27.96Q18.82 26.21 18.82 23.95Q18.82 22.46 18.38 21.22Q17.97 19.95 17.28 19.12Q16.66 18.32 15.8 17.7Q14.95 17.1 14.21 16.81Q13.58 16.54 12.91 16.36L17.92 9.89L17.92 8.09L1.67 8.09L1.67 15.65L5.42 15.65ZM6.11 14.65L7.32 14.65L6.64 15.65L4.02 19.45L5.82 21.7L6.09 21.55Q6.36 21.4 6.99 21.25Q7.65 21.1 8.37 21.1Q9.81 21.1 10.59 21.73Q10.85 21.93 11.02 22.2Q11.37 22.73 11.37 23.5Q11.37 24.26 11.02 24.79Q10.85 25.06 10.59 25.27Q9.81 25.9 8.37 25.9Q7.82 25.9 7.27 25.83Q6.37 25.71 5.49 25.42Q4.34 25.05 3.83 24.8Q3.72 24.74 3.63 24.7C3.35 24.52 3.13 24.37 2.97 24.25L2.58 25.19L1.17 28.6L1.47 28.9C1.69 29.1 2.02 29.34 2.46 29.62C2.9 29.9 3.41 30.17 3.99 30.43C4.59 30.71 5.33 30.95 6.21 31.15C7.09 31.35 8.01 31.45 8.97 31.45Q13.14 31.45 15.48 29.38L15.48 29.38Q16.4 28.56 16.96 27.55L16.96 27.55Q17.82 25.98 17.82 23.95C17.82 23.07 17.69 22.27 17.43 21.55C17.19 20.81 16.88 20.2 16.5 19.75C16.14 19.29 15.71 18.87 15.21 18.52Q14.46 17.98 13.83 17.74Q13.2 17.46 12.51 17.29C12.42 17.26 12.33 17.24 12.24 17.22C11.93 17.14 11.71 17.09 11.58 17.08C11.53 17.07 11.48 17.06 11.43 17.06C11.36 17.05 11.29 17.04 11.22 17.04L11.22 16.9L11.84 16.1L16.5 10.1L16.92 9.54L16.92 9.09L2.67 9.09L2.67 14.65L6.11 14.65ZM38.68 31.33Q39.67 31.8 41.1 32.12Q42.53 32.45 44.08 32.45Q48.43 32.45 50.98 30.3Q51.12 30.18 51.26 30.06Q52.15 29.26 52.74 28.28Q53.93 26.32 53.93 23.65Q53.93 21.77 53.21 20.23Q52.56 18.85 51.32 17.74Q50.99 17.45 50.64 17.2Q49.04 16.04 46.88 15.65L52.73 15.65L52.73 8.09L38.12 8.09L36.24 20.71L40.72 23.36L41.55 22.68Q41.82 22.52 42.39 22.3Q42.94 22.1 43.48 22.1Q44.57 22.1 45.07 22.5Q45.15 22.57 45.22 22.65Q45.48 22.97 45.48 23.5Q45.48 24.02 45.22 24.34Q45.15 24.42 45.07 24.49Q44.57 24.9 43.48 24.9Q42.23 24.9 40.96 24.46Q39.67 24.05 39.27 23.83Q38.87 23.59 38.68 23.45L37.65 22.67L35.1 28.83L35.89 29.62L35.91 29.64Q36.3 29.99 37.03 30.46Q37.75 30.92 38.68 31.33ZM37.69 25.19L38.08 24.25C38.24 24.37 38.47 24.52 38.77 24.7C38.82 24.72 38.88 24.75 38.94 24.78C39.29 24.95 39.86 25.16 40.66 25.42C41.6 25.74 42.54 25.9 43.48 25.9C44.44 25.9 45.18 25.69 45.7 25.27C46.22 24.85 46.48 24.26 46.48 23.5C46.48 22.74 46.22 22.15 45.7 21.73C45.18 21.31 44.44 21.1 43.48 21.1L43.48 21.1Q42.76 21.1 42.04 21.37Q41.32 21.64 40.96 21.88L40.63 22.15L37.33 20.2L38.98 9.09L51.73 9.09L51.73 14.65L43.24 14.65L43.07 15.55L42.88 16.6Q43.37 16.5 43.92 16.46Q44.22 16.45 44.53 16.45Q48.02 16.45 50.22 18.13L50.22 18.13Q50.44 18.3 50.65 18.49Q51.72 19.45 52.29 20.64Q52.93 21.99 52.93 23.65Q52.93 26.1 51.82 27.86Q51.32 28.66 50.59 29.32Q50.54 29.36 50.49 29.4Q48.19 31.45 44.08 31.45C43.12 31.45 42.2 31.35 41.32 31.15C40.44 30.95 39.7 30.71 39.1 30.43C38.52 30.17 38.01 29.9 37.57 29.62C37.13 29.34 36.8 29.1 36.58 28.9L36.28 28.6L37.69 25.19Z" fill="#454444" fill-opacity="1.000000" fill-rule="evenodd"/>
</svg>
