<svg width="55.407028" height="32.600006" viewBox="0 0 55.407 32.6" fill="none" xmlns="http://www.w3.org/2000/svg" xmlns:xlink="http://www.w3.org/1999/xlink">
	<desc>
			Created with Pixso.
	</desc>
	<defs/>
	<path id="количество собранных предметов" d="M31.74 1L20.04 31.6L25.44 31.6L37.14 1L31.74 1ZM1.83 20.84Q2.44 22.06 3.49 23.08Q4.1 23.66 4.81 24.1Q6.99 25.45 10 25.45Q13.03 25.45 15.2 24.07Q15.88 23.64 16.48 23.08Q17.56 22.04 18.18 20.77Q19 19.11 19 17.04Q19 14.95 18.16 13.28Q17.54 12.05 16.48 11.05Q15.85 10.44 15.12 9.98Q12.98 8.64 10 8.64Q7.04 8.64 4.89 9.96Q4.14 10.42 3.49 11.05Q2.46 12.02 1.85 13.22Q0.99 14.91 0.99 17.04Q0.99 19.15 1.83 20.84ZM42.79 31.15C43.67 31.35 44.59 31.45 45.55 31.45C48.35 31.45 50.52 30.74 52.06 29.32C53.62 27.92 54.4 26.03 54.4 23.65C54.4 21.57 53.64 19.85 52.12 18.49Q51.91 18.3 51.69 18.13Q49.49 16.45 46 16.45Q45.1 16.45 44.35 16.6L44.71 14.65L53.2 14.65L53.2 9.1L40.45 9.1L38.8 20.2L42.1 22.15L42.43 21.88Q42.79 21.64 43.51 21.37C43.99 21.19 44.47 21.1 44.95 21.1C45.91 21.1 46.65 21.31 47.17 21.73C47.69 22.15 47.95 22.74 47.95 23.5C47.95 24.26 47.69 24.85 47.17 25.27C46.65 25.69 45.91 25.9 44.95 25.9C44.01 25.9 43.07 25.74 42.13 25.42C41.19 25.12 40.56 24.88 40.24 24.7C39.94 24.52 39.71 24.37 39.55 24.25L37.75 28.6L38.05 28.9C38.27 29.1 38.6 29.34 39.04 29.62C39.48 29.9 39.99 30.17 40.57 30.43C41.17 30.71 41.91 30.95 42.79 31.15ZM8.12 14.9Q8.14 14.88 8.17 14.86C8.67 14.32 9.28 14.05 10 14.05Q10.53 14.05 10.98 14.24Q11.43 14.45 11.8 14.86C12.3 15.38 12.55 16.11 12.55 17.04Q12.55 18.34 11.91 19.13Q11.86 19.2 11.8 19.27C11.32 19.79 10.72 20.04 10 20.04C9.28 20.04 8.67 19.79 8.17 19.27C7.69 18.73 7.45 17.99 7.45 17.04Q7.45 15.68 8.12 14.9Z" fill="#F8A4A4" fill-opacity="1.000000" fill-rule="evenodd"/>
	<path id="количество собранных предметов" d="M3.49 23.08C1.83 21.48 0.99 19.46 0.99 17.04C0.99 14.63 1.83 12.63 3.49 11.05C5.17 9.45 7.34 8.64 10 8.64C12.66 8.64 14.82 9.45 16.48 11.05C18.16 12.63 19 14.63 19 17.04C19 19.46 18.16 21.48 16.48 23.08C14.82 24.66 12.66 25.45 10 25.45C7.34 25.45 5.17 24.66 3.49 23.08ZM8.17 14.86C7.69 15.38 7.45 16.11 7.45 17.04C7.45 17.99 7.69 18.73 8.17 19.27C8.67 19.79 9.28 20.04 10 20.04C10.72 20.04 11.32 19.79 11.8 19.27C12.3 18.73 12.55 17.99 12.55 17.04C12.55 16.11 12.3 15.38 11.8 14.86C11.32 14.32 10.72 14.05 10 14.05C9.28 14.05 8.67 14.32 8.17 14.86ZM20.04 31.6L31.74 1L37.14 1L25.44 31.6L20.04 31.6ZM45.55 31.45C44.59 31.45 43.67 31.35 42.79 31.15C41.91 30.95 41.17 30.71 40.57 30.43C39.99 30.17 39.48 29.9 39.04 29.62C38.6 29.34 38.27 29.1 38.05 28.9L37.75 28.6L39.55 24.25C39.71 24.37 39.94 24.52 40.24 24.7C40.56 24.88 41.19 25.12 42.13 25.42C43.07 25.74 44.01 25.9 44.95 25.9C45.91 25.9 46.65 25.69 47.17 25.27C47.69 24.85 47.95 24.26 47.95 23.5C47.95 22.74 47.69 22.15 47.17 21.73C46.65 21.31 45.91 21.1 44.95 21.1C44.47 21.1 43.99 21.19 43.51 21.37C43.03 21.55 42.67 21.72 42.43 21.88L42.1 22.15L38.8 20.2L40.45 9.1L53.2 9.1L53.2 14.65L44.71 14.65L44.35 16.6C44.85 16.5 45.4 16.45 46 16.45C48.56 16.45 50.6 17.12 52.12 18.49C53.64 19.85 54.4 21.57 54.4 23.65C54.4 26.03 53.62 27.92 52.06 29.32C50.52 30.74 48.35 31.45 45.55 31.45Z" stroke="#454444" stroke-opacity="1.000000" stroke-width="1.000000"/>
</svg>
