<svg width="49.251160" height="32.599976" viewBox="0 0 49.2512 32.6" fill="none" xmlns="http://www.w3.org/2000/svg" xmlns:xlink="http://www.w3.org/1999/xlink">
	<desc>
			Created with Pixso.
	</desc>
	<defs/>
	<path d="M13.89 31.6L25.59 1L30.99 1L19.29 31.6L13.89 31.6ZM1 18.4L1 12.4L6.7 9.09L11.8 9.09L11.8 25L5.5 25L5.5 16L1 18.4ZM36.64 31.15C37.52 31.35 38.44 31.45 39.4 31.45Q43.51 31.45 45.81 29.4Q45.86 29.36 45.91 29.32Q46.64 28.66 47.14 27.86Q48.25 26.1 48.25 23.65C48.25 21.57 47.49 19.85 45.97 18.49C44.45 17.12 42.41 16.45 39.85 16.45C39.25 16.45 38.7 16.5 38.2 16.6L38.56 14.65L47.05 14.65L47.05 9.09L34.3 9.09L32.65 20.2L35.95 22.15L36.28 21.88C36.52 21.72 36.88 21.55 37.36 21.37C37.84 21.19 38.32 21.1 38.8 21.1C39.76 21.1 40.5 21.31 41.02 21.73C41.54 22.15 41.8 22.74 41.8 23.5C41.8 24.26 41.54 24.85 41.02 25.27C40.5 25.69 39.76 25.9 38.8 25.9C37.86 25.9 36.92 25.74 35.98 25.42C35.04 25.12 34.41 24.88 34.09 24.7C33.79 24.52 33.56 24.37 33.4 24.25L31.6 28.6L31.9 28.9C32.12 29.1 32.45 29.34 32.89 29.62C33.33 29.9 33.84 30.17 34.42 30.43C35.02 30.71 35.76 30.95 36.64 31.15Z" fill="#F8A4A4" fill-opacity="1.000000" fill-rule="evenodd"/>
	<path d="M32.44 0L24.9 0L12.43 32.59L19.98 32.59L32.44 0ZM14.27 30.6L25.59 1L30.99 1L30.6 2L19.29 31.6L13.89 31.6L14.27 30.6ZM6.43 8.09L0.49 11.53L0 11.82L0 20.06L4.5 17.66L4.5 26L12.8 26L12.8 8.09L6.43 8.09ZM4.5 16.53L5.5 16L5.5 25L11.8 25L11.8 9.09L6.7 9.09L1 12.4L1 18.4L2 17.86L4.5 16.53ZM33.99 31.33Q34.99 31.8 36.41 32.12Q37.84 32.45 39.4 32.45Q43.75 32.45 46.3 30.3Q46.44 30.18 46.57 30.06Q47.47 29.26 48.06 28.28Q49.25 26.32 49.25 23.65Q49.25 21.77 48.52 20.23Q47.87 18.85 46.63 17.74Q46.31 17.45 45.96 17.2Q44.35 16.04 42.19 15.65L48.05 15.65L48.05 8.09L33.43 8.09L31.56 20.71L36.04 23.36L36.87 22.68Q37.13 22.52 37.71 22.3Q38.26 22.1 38.8 22.1Q39.88 22.1 40.39 22.5Q40.47 22.57 40.54 22.65Q40.8 22.97 40.8 23.5Q40.8 24.02 40.54 24.34Q40.47 24.42 40.39 24.49Q39.88 24.9 38.8 24.9Q37.55 24.9 36.28 24.46Q34.99 24.05 34.59 23.83Q34.19 23.59 34 23.45L32.97 22.67L30.42 28.83L31.21 29.62L31.22 29.64Q31.62 29.99 32.35 30.46Q33.07 30.92 33.99 31.33ZM33 25.19L33.4 24.25C33.56 24.37 33.79 24.52 34.09 24.7C34.14 24.72 34.19 24.75 34.26 24.78C34.61 24.95 35.18 25.16 35.98 25.42C36.92 25.74 37.86 25.9 38.8 25.9C39.76 25.9 40.5 25.69 41.02 25.27C41.54 24.85 41.8 24.26 41.8 23.5C41.8 22.74 41.54 22.15 41.02 21.73C40.5 21.31 39.76 21.1 38.8 21.1C38.32 21.1 37.84 21.19 37.36 21.37C36.88 21.55 36.52 21.72 36.28 21.88L35.95 22.15L32.65 20.2L34.3 9.09L47.05 9.09L47.05 14.65L38.56 14.65L38.39 15.55L38.2 16.6C38.52 16.53 38.87 16.49 39.24 16.46C39.43 16.45 39.64 16.45 39.85 16.45C42.41 16.45 44.45 17.12 45.97 18.49Q47.04 19.45 47.61 20.64Q48.25 21.99 48.25 23.65Q48.25 26.1 47.14 27.86Q46.64 28.66 45.91 29.32Q45.86 29.36 45.81 29.4Q43.51 31.45 39.4 31.45C38.44 31.45 37.52 31.35 36.64 31.15C35.76 30.95 35.02 30.71 34.42 30.43C33.84 30.17 33.33 29.9 32.89 29.62C32.45 29.34 32.12 29.1 31.9 28.9L31.6 28.6L33 25.19Z" fill="#454444" fill-opacity="1.000000" fill-rule="evenodd"/>
</svg>
