<svg width="56.750000" height="32.599976" viewBox="0 0 56.75 32.6" fill="none" xmlns="http://www.w3.org/2000/svg" xmlns:xlink="http://www.w3.org/1999/xlink">
	<desc>
			Created with Pixso.
	</desc>
	<defs/>
	<path d="M21.39 31.6L33.09 1L38.49 1L26.79 31.6L21.39 31.6ZM16.06 9.09L10.14 19.6L11.8 19.6L13 16.45L17.95 16.45L17.95 19.6L20.95 19.6L20.95 25L17.95 25L17.95 31L11.65 31L11.65 25L1 25L1 24.52L9.39 9.09L16.06 9.09ZM44.14 31.15C45.02 31.35 45.94 31.45 46.9 31.45Q51.01 31.45 53.31 29.4Q53.36 29.36 53.41 29.32Q54.14 28.66 54.64 27.86Q55.75 26.1 55.75 23.65C55.75 21.57 54.99 19.85 53.47 18.49C51.95 17.12 49.91 16.45 47.35 16.45C46.75 16.45 46.2 16.5 45.7 16.6L46.06 14.65L54.55 14.65L54.55 9.09L41.8 9.09L40.15 20.2L43.45 22.15L43.78 21.88Q44.14 21.64 44.86 21.37Q45.58 21.1 46.3 21.1C47.26 21.1 48 21.31 48.52 21.73C49.04 22.15 49.3 22.74 49.3 23.5C49.3 24.26 49.04 24.85 48.52 25.27C48 25.69 47.26 25.9 46.3 25.9C45.36 25.9 44.42 25.74 43.48 25.42C42.54 25.12 41.91 24.88 41.59 24.7C41.29 24.52 41.06 24.37 40.9 24.25L39.09 28.6L39.4 28.9C39.62 29.1 39.95 29.34 40.39 29.62C40.83 29.9 41.34 30.17 41.92 30.43C42.52 30.71 43.26 30.95 44.14 31.15Z" fill="#F8A4A4" fill-opacity="1.000000" fill-rule="evenodd"/>
	<path d="M39.94 0L32.4 0L19.93 32.59L27.47 32.59L39.94 0ZM21.77 30.6L33.09 1L38.49 1L38.1 2L26.79 31.6L21.39 31.6L21.77 30.6ZM11.29 19.6L10.14 19.6L10.71 18.6L11.94 16.41L12.48 15.45L15.49 10.1L16.06 9.09L9.39 9.09L1 24.52L1 25L11.65 25L11.65 31L17.95 31L17.95 25L20.95 25L20.95 19.6L17.95 19.6L17.95 16.45L13 16.45L12.85 16.83L11.8 19.6L11.29 19.6ZM13.63 15.45L17.77 8.09L8.8 8.09L0 24.26L0 26L10.65 26L10.65 32L18.95 32L18.95 26L21.95 26L21.95 18.6L18.95 18.6L18.95 15.45L13.63 15.45ZM41.49 31.33Q42.49 31.8 43.91 32.12Q45.34 32.45 46.9 32.45Q51.25 32.45 53.8 30.3Q53.94 30.18 54.07 30.06Q54.97 29.26 55.56 28.28Q56.75 26.32 56.75 23.65Q56.75 21.77 56.02 20.23Q55.37 18.85 54.13 17.74Q53.81 17.45 53.46 17.2Q51.85 16.04 49.69 15.65L55.55 15.65L55.55 8.09L40.93 8.09L39.06 20.71L43.54 23.36L44.37 22.68Q44.63 22.52 45.21 22.3Q45.76 22.1 46.3 22.1Q47.38 22.1 47.89 22.5Q47.97 22.57 48.04 22.65Q48.3 22.97 48.3 23.5Q48.3 24.02 48.04 24.34Q47.97 24.42 47.89 24.49Q47.38 24.9 46.3 24.9Q45.05 24.9 43.78 24.46Q42.48 24.05 42.09 23.83Q41.69 23.59 41.5 23.45L40.46 22.67L37.92 28.83L38.7 29.62L38.72 29.64Q39.12 29.99 39.85 30.46Q40.57 30.92 41.49 31.33ZM40.5 25.19L40.9 24.25C41.06 24.37 41.29 24.52 41.59 24.7C41.63 24.72 41.69 24.75 41.75 24.78C42.11 24.95 42.68 25.16 43.48 25.42C44.42 25.74 45.36 25.9 46.3 25.9C47.26 25.9 48 25.69 48.52 25.27C49.04 24.85 49.3 24.26 49.3 23.5C49.3 22.74 49.04 22.15 48.52 21.73C48 21.31 47.26 21.1 46.3 21.1Q45.58 21.1 44.86 21.37Q44.14 21.64 43.78 21.88L43.45 22.15L40.15 20.2L41.8 9.09L54.55 9.09L54.55 14.65L46.06 14.65L45.89 15.55L45.7 16.6C46.02 16.53 46.37 16.49 46.74 16.46C46.93 16.45 47.14 16.45 47.35 16.45C49.91 16.45 51.95 17.12 53.47 18.49Q54.54 19.45 55.11 20.64Q55.75 21.99 55.75 23.65Q55.75 26.1 54.64 27.86Q54.14 28.66 53.41 29.32Q53.36 29.36 53.31 29.4Q51.01 31.45 46.9 31.45C45.94 31.45 45.02 31.35 44.14 31.15C43.26 30.95 42.52 30.71 41.92 30.43C41.34 30.17 40.83 29.9 40.39 29.62C39.95 29.34 39.62 29.1 39.4 28.9L39.09 28.6L40.5 25.19Z" fill="#454444" fill-opacity="1.000000" fill-rule="evenodd"/>
</svg>
