<svg width="54.249321" height="32.599976" viewBox="0 0 54.2493 32.6" fill="none" xmlns="http://www.w3.org/2000/svg" xmlns:xlink="http://www.w3.org/1999/xlink">
	<desc>
			Created with Pixso.
	</desc>
	<defs/>
	<path d="M18.88 31.6L30.58 1L35.98 1L24.28 31.6L18.88 31.6ZM8.97 31.45C8.01 31.45 7.09 31.35 6.21 31.15C5.33 30.95 4.59 30.71 3.99 30.43C3.41 30.17 2.9 29.9 2.46 29.62C2.02 29.34 1.69 29.1 1.47 28.9L1.17 28.6L2.97 24.25C3.13 24.37 3.36 24.52 3.66 24.7Q4.14 24.97 5.55 25.42Q6.96 25.9 8.37 25.9L8.37 25.9Q9.81 25.9 10.59 25.27Q10.85 25.06 11.02 24.79L11.02 24.79Q11.37 24.26 11.37 23.5Q11.37 22.73 11.02 22.2L11.02 22.2Q10.85 21.93 10.59 21.73Q9.81 21.1 8.37 21.1Q7.65 21.1 6.93 21.37Q6.21 21.64 5.85 21.88L5.52 22.15L2.22 20.2L3.87 9.09L16.62 9.09L16.62 14.65L8.13 14.65L7.77 16.6Q8.52 16.45 9.42 16.45Q12.91 16.45 15.11 18.13L15.11 18.13Q15.34 18.3 15.54 18.49Q16.62 19.45 17.19 20.64Q17.82 21.99 17.82 23.65Q17.82 26.1 16.72 27.86Q16.22 28.66 15.48 29.32Q15.44 29.36 15.39 29.4L15.39 29.4Q13.09 31.45 8.97 31.45ZM41.63 31.15C42.51 31.35 43.43 31.45 44.39 31.45Q48.51 31.45 50.81 29.4Q50.86 29.36 50.9 29.32Q51.64 28.66 52.14 27.86Q53.24 26.1 53.24 23.65C53.24 21.57 52.48 19.85 50.96 18.49C49.44 17.12 47.4 16.45 44.84 16.45C44.24 16.45 43.69 16.5 43.19 16.6L43.55 14.65L52.04 14.65L52.04 9.09L39.29 9.09L37.64 20.2L40.94 22.15L41.27 21.88Q41.63 21.64 42.35 21.37Q43.07 21.1 43.79 21.1C44.75 21.1 45.49 21.31 46.01 21.73C46.53 22.15 46.79 22.74 46.79 23.5C46.79 24.26 46.53 24.85 46.01 25.27C45.49 25.69 44.75 25.9 43.79 25.9C42.85 25.9 41.91 25.74 40.97 25.42C40.03 25.12 39.4 24.88 39.08 24.7C38.78 24.52 38.55 24.37 38.39 24.25L36.59 28.6L36.89 28.9C37.11 29.1 37.44 29.34 37.88 29.62C38.32 29.9 38.83 30.17 39.41 30.43C40.01 30.71 40.75 30.95 41.63 31.15Z" fill="#F8A4A4" fill-opacity="1.000000" fill-rule="evenodd"/>
	<path d="M37.44 0L29.9 0L17.43 32.59L24.97 32.59L37.44 0ZM19.27 30.6L30.58 1L35.98 1L35.6 2L24.28 31.6L18.88 31.6L19.27 30.6ZM3.57 31.33Q4.57 31.8 5.99 32.12Q7.42 32.45 8.97 32.45Q13.32 32.45 15.88 30.3Q16.02 30.18 16.15 30.06Q17.04 29.26 17.64 28.28Q18.82 26.32 18.82 23.65Q18.82 21.77 18.1 20.23Q17.45 18.85 16.21 17.74Q15.89 17.45 15.53 17.2Q13.93 16.04 11.77 15.65L17.62 15.65L17.62 8.09L3.01 8.09L1.14 20.71L5.62 23.36L6.44 22.68Q6.71 22.52 7.29 22.3Q7.84 22.1 8.37 22.1Q9.46 22.1 9.97 22.5Q10.05 22.57 10.12 22.65Q10.37 22.97 10.37 23.5Q10.37 24.02 10.12 24.34Q10.05 24.42 9.97 24.49Q9.46 24.9 8.37 24.9Q7.13 24.9 5.86 24.46Q4.56 24.05 4.17 23.83Q3.77 23.59 3.57 23.45L2.54 22.67L0 28.83L0.78 29.62L0.8 29.64Q1.2 29.99 1.93 30.46Q2.65 30.92 3.57 31.33ZM2.58 25.19L2.97 24.25C3.13 24.37 3.36 24.52 3.66 24.7Q3.74 24.74 3.83 24.78Q4.36 25.03 5.55 25.42Q6.96 25.9 8.37 25.9L8.37 25.9Q9.81 25.9 10.59 25.27Q10.85 25.06 11.02 24.79L11.02 24.79Q11.37 24.26 11.37 23.5Q11.37 22.73 11.02 22.2L11.02 22.2Q10.85 21.93 10.59 21.73Q9.81 21.1 8.37 21.1Q7.65 21.1 6.93 21.37Q6.21 21.64 5.85 21.88L5.52 22.15L2.22 20.2L3.87 9.09L16.62 9.09L16.62 14.65L8.13 14.65L7.97 15.55L7.77 16.6Q8.26 16.5 8.82 16.46Q9.11 16.45 9.42 16.45Q12.91 16.45 15.11 18.13L15.11 18.13L15.12 18.13Q15.34 18.3 15.54 18.49Q16.62 19.45 17.19 20.64L17.19 20.64Q17.82 21.99 17.82 23.65Q17.82 26.1 16.72 27.86L16.72 27.86Q16.22 28.66 15.48 29.32Q15.44 29.36 15.39 29.4L15.39 29.4Q13.09 31.45 8.97 31.45C8.01 31.45 7.09 31.35 6.21 31.15C5.33 30.95 4.59 30.71 3.99 30.43C3.41 30.17 2.9 29.9 2.46 29.62C2.02 29.34 1.69 29.1 1.47 28.9L1.17 28.6L2.58 25.19ZM38.99 31.33Q39.99 31.8 41.41 32.12Q42.84 32.45 44.39 32.45Q48.74 32.45 51.3 30.3Q51.44 30.18 51.57 30.06Q52.46 29.26 53.06 28.28Q54.24 26.32 54.24 23.65Q54.24 21.77 53.52 20.23Q52.87 18.85 51.63 17.74Q51.31 17.45 50.95 17.2Q49.35 16.04 47.19 15.65L53.04 15.65L53.04 8.09L38.43 8.09L36.56 20.71L41.04 23.36L41.86 22.68Q42.13 22.52 42.71 22.3Q43.26 22.1 43.79 22.1Q44.88 22.1 45.39 22.5Q45.47 22.57 45.54 22.65Q45.79 22.97 45.79 23.5Q45.79 24.02 45.54 24.34Q45.47 24.42 45.39 24.49Q44.88 24.9 43.79 24.9Q42.55 24.9 41.28 24.46Q39.98 24.05 39.59 23.83Q39.19 23.59 38.99 23.45L37.96 22.67L35.41 28.83L36.2 29.62L36.22 29.64Q36.62 29.99 37.35 30.46Q38.07 30.92 38.99 31.33ZM38 25.19L38.39 24.25C38.55 24.37 38.78 24.52 39.08 24.7C39.13 24.72 39.19 24.75 39.25 24.78C39.61 24.95 40.18 25.16 40.97 25.42C41.91 25.74 42.85 25.9 43.79 25.9C44.75 25.9 45.49 25.69 46.01 25.27C46.53 24.85 46.79 24.26 46.79 23.5C46.79 22.74 46.53 22.15 46.01 21.73C45.49 21.31 44.75 21.1 43.79 21.1Q43.07 21.1 42.35 21.37Q41.63 21.64 41.27 21.88L40.94 22.15L37.64 20.2L39.29 9.09L52.04 9.09L52.04 14.65L43.55 14.65L43.39 15.55L43.19 16.6C43.52 16.53 43.87 16.49 44.24 16.46C44.43 16.45 44.64 16.45 44.84 16.45C47.4 16.45 49.44 17.12 50.96 18.49Q52.04 19.45 52.61 20.64Q53.24 21.99 53.24 23.65Q53.24 26.1 52.14 27.86Q51.64 28.66 50.9 29.32Q50.86 29.36 50.81 29.4Q48.51 31.45 44.39 31.45C43.43 31.45 42.51 31.35 41.63 31.15C40.75 30.95 40.01 30.71 39.41 30.43C38.83 30.17 38.32 29.9 37.88 29.62C37.44 29.34 37.11 29.1 36.89 28.9L36.59 28.6L38 25.19Z" fill="#454444" fill-opacity="1.000000" fill-rule="evenodd"/>
</svg>
